<svg width="112" height="120" viewBox="0 0 112 120" fill="none" xmlns="http://www.w3.org/2000/svg">
<path d="M14.6523 35.1425L15.5369 35.0773C18.0281 34.8938 20.5202 34.7246 22.8876 34.6812L14.6523 35.1425ZM14.6523 35.1425L15.1661 35.8656M14.6523 35.1425L15.1661 35.8656M15.1661 35.8656C17.5058 39.158 19.8449 42.3922 22.7515 44.8601L23.0751 44.479M15.1661 35.8656L23.0751 44.479M23.0751 44.479L22.7515 44.8601C24.756 46.5621 27.0352 47.9794 29.9011 48.9311L30.7085 49.1992M23.0751 44.479L30.7085 49.1992M30.7085 49.1992L30.5499 48.3634M30.7085 49.1992L30.5499 48.3634M30.5499 48.3634L28.0376 35.1213L27.963 34.7286M30.5499 48.3634L27.963 34.7286M27.963 34.7286L27.5635 34.7148M27.963 34.7286L27.5635 34.7148M27.5635 34.7148C26.767 34.6874 25.9637 34.6707 25.1517 34.6662L27.5635 34.7148ZM57.7487 1.50452L57.3594 1.45184L57.2161 1.81766L46.9397 28.0558L46.8391 28.3125L47.0026 28.5346L65.9098 54.2178L66.0743 54.4412L66.3509 54.4198L90.5129 52.5539L90.9929 52.5169L90.974 52.0358L90.2029 32.3945L90.1868 31.9847L89.7817 31.9203L70.3298 28.8316L69.7736 28.7433L69.7517 29.306L69.3512 39.5956L69.3356 39.9981L69.7255 40.0991L76.9665 41.9739L77.6284 42.1452L77.5911 41.4626L77.4278 38.4691L81.0714 38.2723L81.5418 46.9096L65.5768 42.7753L66.2865 24.5139L82.8067 27.1373L83.4022 27.2318L83.385 26.6291L82.774 5.31322L82.7619 4.88897L82.3413 4.83206L57.7487 1.50452ZM48.7745 13.3732L49.2718 12.1033L48.0716 12.7508L29.7385 22.6395L29.4164 22.8132L29.4846 23.1728L35.9413 57.2095L35.9844 57.4367L36.1853 57.551L71.3347 77.544L71.5703 77.678L71.8112 77.5537L110.229 57.7259L110.525 57.5734L110.498 57.242L107.7 22.0131L107.663 21.5584L107.207 21.5528L87.4029 21.308L86.882 21.3016L86.8969 21.8223L87.0566 27.3992L87.0685 27.8137L87.478 27.8787L93.7156 28.869L94.7759 55.8654L64.3308 58.2166L42.7126 28.8505L48.7745 13.3732ZM32.0006 56.0089L31.8906 55.4293L31.3368 55.6328C27.7214 56.9618 24.468 58.9715 21.379 61.5525C16.8828 65.3089 12.7743 70.361 8.69834 76.1328L8.17126 76.8791L9.08403 76.9207C23.32 77.5685 34.182 75.3202 46.0096 68.176L46.7396 67.7351L45.9983 67.3134L32.7115 59.7564L32.0006 56.0089ZM99.2182 67.8619L98.9614 67.6301L98.654 67.7888L86.0574 74.2903L85.3458 74.6576L85.9883 75.1357C93.0287 80.3756 99.8521 81.9717 108.695 82.3087L109.475 82.3385L109.176 81.6176C106.964 76.283 103.469 71.6974 99.2182 67.8619ZM52.1569 69.4793L52.225 68.4669L51.3807 69.0297C47.7774 71.4319 44.2501 73.4126 40.716 75.021L40.412 75.1594L40.4235 75.4932C40.5124 78.0885 41.0725 80.27 42.0517 81.9934C34.8369 91.1447 26.9659 99.4891 18.4132 106.995C16.5246 106.801 15.2251 105.752 14.5509 104.258C13.8434 102.691 13.8111 100.593 14.6126 98.4338L15.234 96.7601L13.8337 97.8677C10.9401 100.156 8.97758 102.849 8.08207 105.83C7.21732 108.708 7.35914 111.816 8.56677 115.029C6.96882 116.242 5.35217 117.432 3.71137 118.592L2.42653 119.5H4H15.2792H15.4512L15.5869 119.394C21.9053 114.461 27.8864 109.14 33.5422 103.44C37.191 104.514 40.5722 104.4 43.5451 103.184C46.5944 101.938 49.1675 99.5508 51.1482 96.1994L52.058 94.6601L50.4818 95.5042C47.0148 97.3608 43.4885 96.8008 42.0126 94.3538C44.2751 91.7627 46.478 89.1022 48.6223 86.3729C50.4414 86.6236 52.4885 86.4382 54.6943 85.8129L55.2728 85.6489L55.006 85.11C52.8432 80.7418 51.747 75.5748 52.1569 69.4793ZM56.4158 73.2387L55.6256 72.7892L55.6691 73.6973C55.975 80.0716 58.3315 84.8336 61.9251 88.8982C66.4502 94.0167 73.1992 97.9166 80.3855 101.6L80.9553 101.892L81.1006 101.269C83.0498 92.9018 83.5069 85.5848 80.5719 77.75L80.3745 77.223L79.8744 77.4811L71.4858 81.8105L56.4158 73.2387Z" fill="#FF3131" stroke="black"/>
</svg>
