<svg width="618" height="669" viewBox="0 0 618 669" fill="none" xmlns="http://www.w3.org/2000/svg">
<g filter="url(#filter0_d_28_56)">
<path d="M414.583 251.106C415.289 254.521 412.977 256.611 411.119 258.782C411.527 260.366 411.902 261.821 412.277 263.276C412.053 263.373 411.828 263.469 411.603 263.566C411.088 262.662 410.572 261.757 409.86 260.507C409.249 261.354 408.548 262.076 408.138 262.935C405.449 268.571 401.914 273.613 397.682 278.186C397.491 278.393 397.426 278.719 397.206 279.2C397.67 279.428 398.08 279.794 398.507 279.815C403.558 280.063 408.619 280.265 413.525 278.677C414.984 278.205 416.305 277.868 417.433 279.319C418.612 280.836 419.867 279.455 421.025 279.774C422.222 280.022 423.413 280.445 424.616 280.484C428.285 280.602 431.711 281.55 435.018 283.08C437.816 284.373 440.613 285.678 443.475 286.814C444.359 287.165 445.475 287.131 446.452 287.01C448.699 286.732 450.919 286.244 453.165 285.947C453.926 285.846 454.903 285.803 455.478 286.188C456.65 286.973 457.617 286.666 458.645 286.11C460.729 284.981 462.798 283.826 464.876 282.689C466.024 282.061 467.179 281.447 468.71 280.624C468.521 281.517 468.499 282.02 468.311 282.449C467.15 285.087 466.014 287.739 464.733 290.319C464.246 291.301 463.463 292.163 462.705 292.977C460.39 295.458 457.945 297.822 455.708 300.37C454.603 301.628 453.538 302.943 453.493 304.92C453.473 305.783 452.271 306.748 451.421 307.439C448.901 309.491 445.789 310.011 442.704 310.169C437.871 310.416 433.019 310.394 428.17 308.744C428.039 309.498 427.926 310.144 427.752 311.14C424.31 310.515 420.939 309.793 417.898 308.094C415.027 306.491 412.158 304.825 409.529 302.865C404.92 299.428 401.129 295.227 399.222 289.66C398.118 286.433 395.781 284.375 392.832 282.297C387.364 287.653 384.048 294.633 378.509 300.487C381.346 302.125 383.785 303.534 386.224 304.942C383.328 304.985 380.376 305.616 377.714 303.349C377.119 304.418 376.531 305.253 376.16 306.175C373.095 313.792 368.569 320.546 363.951 327.268C360.324 332.547 357.188 338.139 355.029 344.184C353.858 347.462 352.986 350.88 352.334 354.303C350.939 361.627 348.418 368.602 346.004 375.608C345.375 377.431 344.23 379.098 343.193 380.755C340.675 384.777 339.414 389.099 339.326 393.872C339.163 402.739 338.592 411.601 338.55 420.467C338.436 444.003 338.525 467.54 338.504 491.077C338.501 494.204 338.854 497.235 339.993 500.173C341.293 503.525 343.681 505.909 346.774 507.494C347.971 508.108 349.555 508.143 350.963 508.144C373.261 508.171 395.558 508.15 417.856 508.137C431.483 508.13 445.109 508.118 458.735 508.109C459.74 508.108 460.745 508.108 461.906 508.108C461.906 502.278 461.904 496.73 461.906 491.182C461.907 488.395 461.745 485.595 461.957 482.824C462.295 478.394 460.396 475.048 457.309 472.188C455.568 470.575 453.711 469.086 452.005 467.439C451.014 466.483 450.219 465.326 448.924 463.762C450.378 463.594 451.195 463.273 451.875 463.457C457.03 464.851 462.158 466.343 467.538 467.874C467.676 470.014 467.916 472.051 467.922 474.088C467.967 488.125 467.967 502.163 467.965 516.201C467.965 517.102 467.826 518.004 467.75 518.923C404.927 518.923 342.302 518.923 279.556 518.923C279.027 516.66 279.989 515.051 281.271 513.54C283.439 510.986 286.558 510.05 289.447 508.71C290.931 508.021 292.501 507.399 293.79 506.426C298.011 503.237 300.102 498.884 300.124 493.603C300.184 479.565 300.215 465.526 300.224 451.488C300.235 435.591 300.067 419.692 300.258 403.798C300.366 394.772 299.272 385.927 297.718 377.081C294.18 356.936 288.95 337.257 281.7 318.127C280.316 314.476 278.747 310.894 277.243 307.229C249.537 307.229 222.014 307.229 194.318 307.229C194.318 318.676 194.318 329.978 194.318 341.539C196.643 341.903 198.853 342.275 201.072 342.593C213.12 344.318 225.064 346.503 236.588 350.558C243.72 353.067 250.535 356.227 256.644 360.73C267.307 368.59 274.302 379.165 278.409 391.572C282.835 404.941 282.825 418.764 281.402 432.615C280.431 442.066 278.588 451.343 275.535 460.367C266.123 488.181 247.814 507.418 220.257 517.709C218.573 518.338 216.646 518.56 214.832 518.562C178.703 518.608 142.573 518.592 106.444 518.596C104.896 518.596 103.344 518.613 101.803 518.731C100.227 518.851 99.2603 518.246 98.766 516.735C98.0297 514.483 97.208 512.26 96.448 510.016C90.8977 493.628 85.3485 477.24 79.8183 460.845C79.4245 459.678 79.1394 458.468 78.8819 457.261C78.2632 454.36 79.9392 450.657 82.4438 449.322C83.6699 448.668 84.9372 448.713 85.8725 449.71C87.1232 451.043 88.3832 452.442 89.2842 454.016C92.4048 459.466 95.1148 465.165 98.4458 470.478C107.908 485.571 121.115 495.568 138.741 499.429C143.475 500.465 148.202 501.343 153.089 501.778C155.544 498.893 155.518 495.424 155.7 492.089C155.892 488.589 155.777 485.072 155.785 481.562C155.859 447.187 155.93 412.812 156.002 378.437C156.004 377.12 156.002 375.804 156.002 374.415C152.32 373.63 148.994 373.007 145.711 372.208C133.84 369.316 122.448 365.191 111.931 358.862C98.681 350.888 90.2001 339.182 85.3539 324.695C81.7098 313.801 80.5978 302.62 81.425 291.149C82.4938 276.327 86.8895 262.67 94.9197 250.201C102.084 239.077 111.627 230.346 122.742 223.311C131.962 217.476 141.906 213.32 152.605 211.036C153.409 210.864 154.202 210.629 154.987 210.382C155.274 210.292 155.523 210.082 155.879 209.874C155.925 209.417 156.017 208.914 156.018 208.411C156.031 199.121 156.088 189.83 156.019 180.54C155.965 173.163 152.5 168.063 145.594 165.251C143.227 164.286 140.941 163.042 138.793 161.654C137.634 160.905 136.603 159.715 135.936 158.493C134.042 155.023 135.918 151.641 139.822 151.533C145.186 151.383 150.556 151.444 155.924 151.441C191.331 151.423 226.738 151.415 262.145 151.398C278.905 151.391 295.196 154.258 310.973 159.8C323.263 164.118 333.218 171.707 340.98 182.236C349.496 193.788 353.582 206.845 354.921 220.976C355.684 229.032 355.745 237.025 354.2 244.991C349.239 270.581 335.267 288.883 310.777 298.675C308.314 299.66 305.84 300.618 303.217 301.649C313.869 321.001 322.043 341.056 328.748 362.033C329.263 361.49 329.591 361.252 329.777 360.931C333.706 354.161 337.662 347.405 341.521 340.595C344.315 335.667 346.972 330.66 349.701 325.695C350.546 324.159 350.552 322.756 349.96 321.001C349.29 319.01 349.32 316.763 349.182 314.619C349.07 312.873 349.159 311.114 349.377 309.304C350.962 312.232 350.828 315.844 353.22 318.703C354.779 315.962 356.259 313.38 357.72 310.79C362.135 302.964 366.703 295.205 372.726 288.506C376.505 284.301 380.83 280.584 384.943 276.683C386.21 275.482 387.586 274.397 388.801 273.354C388.801 271.197 388.801 269.254 388.801 267.31C388.924 267.245 389.046 267.18 389.169 267.115C389.759 268.299 390.35 269.484 391.133 271.055C392.193 270.225 393.111 269.505 394.124 268.712C392.987 267.143 391.822 265.82 390.986 264.315C389.642 261.895 388.475 259.374 387.315 256.859C386.684 255.489 386.842 254.205 387.564 252.752C389.227 249.403 389.353 245.831 388.459 242.059C388.897 242.546 389.378 243.001 389.766 243.525C391.605 246.013 393.338 248.584 395.268 250.998C396.68 252.765 397.086 254.708 396.674 256.795C396.422 258.077 396.511 259.111 397.04 260.334C397.543 261.5 397.456 262.92 397.659 264.457C398.162 264.084 398.79 263.792 399.17 263.307C401.456 260.385 403.869 257.54 403.802 253.46C403.781 252.149 404.062 250.739 404.579 249.537C405.482 247.439 405.212 245.535 404.283 243.346C404.989 243.524 405.721 243.897 406.342 244.406C408.965 246.551 411.555 248.736 414.272 251.021C414.478 251.077 414.57 251.019 414.624 250.988C414.587 251.014 414.583 251.106 414.583 251.106ZM270.23 255.165C277.305 262.944 283.851 271.153 289.891 280.03C291.564 278.637 292.99 277.474 294.39 276.282C300.831 270.798 306.144 264.419 309.624 256.654C315.31 243.97 315.94 230.626 313.639 217.234C310.999 201.874 302.616 189.836 289.922 180.923C279.072 173.305 266.697 169.668 253.617 169.328C234.644 168.836 215.651 169.089 196.667 169.033C195.885 169.031 195.103 169.127 194.351 169.176C193.723 178.647 193.992 205.542 194.722 207.888C207.56 210.966 217.436 215.004 228.97 221.676C244.37 230.585 257.81 241.895 270.23 255.165ZM243.42 450.794C245.304 442.702 245.778 434.507 245.165 426.241C244 410.519 236.675 398.511 223.234 390.308C214.39 384.911 204.471 382.576 194.186 380.43C194.186 381.507 194.186 382.416 194.186 383.326C194.178 407.671 194.158 432.017 194.166 456.363C194.169 468.845 194.218 481.328 194.251 493.81C194.255 495.551 194.334 497.279 195.413 498.935C196.075 498.815 196.685 498.779 197.244 498.592C206.095 495.624 214.509 491.78 221.726 485.738C232.634 476.606 240.196 465.335 243.42 450.794ZM255.877 269.527C251.93 264.908 248.172 260.11 243.998 255.706C233.864 245.016 222.002 236.795 208.16 231.562C203.668 229.864 199.098 228.45 194.343 227.527C194.343 249.208 194.343 270.61 194.343 292.273C195.564 292.273 196.573 292.273 197.582 292.273C205.936 292.272 214.291 292.33 222.645 292.257C232.435 292.171 242.225 292.039 252.011 291.795C257.464 291.659 262.745 290.334 268.402 289.165C264.676 282.208 260.58 275.939 255.877 269.527ZM120.024 269.919C119.258 273.54 118.184 277.128 117.789 280.789C117.002 288.088 117.119 295.311 119.249 302.527C123.292 316.225 131.88 325.665 144.805 331.361C148.35 332.923 152.039 334.053 155.799 334.963C155.799 300.27 155.799 265.889 155.799 231.279C154.298 231.889 153.055 232.352 151.846 232.892C141.941 237.319 133.493 243.492 127.679 252.888C124.459 258.092 121.913 263.581 120.024 269.919Z" fill="#FAFAFA"/>
</g>
<g filter="url(#filter1_d_28_56)">
<path d="M432.44 360.459C429.986 360.046 429.39 362.195 427.653 363.733C427.576 357.715 427.387 352.39 427.486 347.069C427.545 343.895 427.81 340.682 428.409 337.568C430.153 328.511 436.348 323.54 445.589 323.388C449.342 323.326 452.987 323.572 456.371 325.428C462.825 328.97 466.566 334.524 467.293 341.689C468.009 348.738 467.945 355.866 468.241 363.408C467.333 362.955 466.711 362.855 466.538 362.523C465.577 360.668 463.992 360.417 462.122 360.426C452.321 360.475 442.521 360.454 432.44 360.459ZM454.255 330.454C450.997 330.107 447.727 329.381 444.485 329.494C438.739 329.696 434.367 332.52 431.51 337.608C428.408 343.132 429.725 348.943 429.961 354.786C441.775 354.786 453.265 354.786 465.107 354.786C465.251 352.046 465.477 349.508 465.502 346.969C465.577 339.123 462.011 333.642 454.255 330.454Z" fill="#EFEFEF"/>
</g>
<g filter="url(#filter2_d_28_56)">
<path d="M464.464 449.179C455.866 461.512 433.262 458.818 428.065 443.921C425.683 437.092 425.632 430.215 429.099 423.561C433.352 415.398 440.578 412.417 449.128 413.353C462.402 414.806 467.947 424.711 468.631 434.786C468.986 440.02 467.801 444.79 464.464 449.179ZM454.239 420.325C448.468 418.754 442.884 419.027 437.402 421.652C429.612 425.382 427.416 432.396 429.545 440.26C430.598 444.148 432.981 446.737 436.489 448.451C440.27 450.299 444.284 450.991 448.472 450.962C454.283 450.923 458.968 448.563 462.989 444.465C466.896 440.484 467.687 431.523 463.936 427.003C461.402 423.95 458.275 421.967 454.239 420.325Z" fill="#EFF0F0"/>
</g>
<g filter="url(#filter3_d_28_56)">
<path d="M442.78 396.89C437.209 394.277 431.599 392.262 425.913 388.785C428.956 387.38 431.325 386.234 433.736 385.185C442.795 381.243 451.86 377.316 460.939 373.421C463.374 372.377 465.5 371.049 466.645 368.521C466.748 368.293 467.087 368.172 467.621 367.774C467.621 371.497 467.621 374.942 467.621 378.448C466.141 378.991 465.697 377.19 464.354 376.943C461.052 378.478 457.607 380.079 453.966 381.771C453.966 387.12 453.966 392.541 453.966 398.236C457.458 399.79 461.013 401.373 464.562 402.952C465.419 402.651 466.257 402.356 467.485 401.925C467.485 404.893 467.485 407.586 467.485 410.521C467.092 410.147 466.567 409.853 466.353 409.409C465.301 407.225 463.508 406.031 461.34 405.101C455.196 402.463 449.106 399.699 442.78 396.89ZM446.784 384.698C442.873 386.424 438.962 388.149 434.378 390.171C440.383 392.723 445.776 395.015 451.249 397.341C451.826 393.381 451.539 384.515 450.805 382.811C449.611 383.384 448.418 383.957 446.784 384.698Z" fill="#ECECEC"/>
</g>
<g filter="url(#filter4_d_28_56)">
<path d="M396.185 206.288C394.901 203.392 393.34 200.583 392.396 197.58C390.923 192.897 388.504 188.957 384.754 185.822C384.044 185.228 383.319 184.615 382.509 184.184C381.477 183.635 380.626 183.733 380.028 185.023C377.806 189.814 379.06 195.375 382.077 198.254C383.711 199.814 385.544 201.167 387.311 202.583C389.431 204.282 391.141 206.239 391.861 209.315C390.921 209.315 390.233 209.396 389.57 209.3C387.122 208.948 384.682 208.539 382.239 208.147C379.193 207.659 378.903 207.241 378.062 204.186C377.408 201.808 376.713 199.366 375.542 197.223C372.899 192.387 372.135 187.272 372.835 181.946C373.452 177.252 374.422 172.603 375.28 167.942C375.403 167.274 375.772 166.65 376.082 165.866C385.004 169.137 389.032 177.13 394.485 184.305C395.054 183.086 395.383 182.277 395.797 181.514C396.974 179.348 397.941 177.006 399.453 175.101C401.017 173.131 403.281 172.07 406.005 172.259C410.32 172.558 414.182 174.099 417.972 176.102C417.477 177.796 416.117 178.169 414.949 178.746C413.564 179.43 412.091 179.962 410.778 180.76C408.663 182.045 408.288 183.126 409.197 185.425C409.759 186.85 410.544 188.208 411.376 189.501C412.71 191.578 414.166 193.576 415.795 195.941C416.852 197.329 417.685 198.384 418.518 199.439C419.009 200.305 419.499 201.171 420.254 202.504C419.213 202.288 418.639 202.282 418.174 202.054C415.411 200.697 412.553 199.476 409.97 197.83C408.294 196.762 406.996 195.079 405.597 193.607C404.858 192.829 404.264 191.913 403.331 190.704C402.523 191.901 401.984 192.699 401.371 193.607C400.403 193.257 399.405 192.897 397.734 192.294C398.165 193.749 398.429 194.641 398.694 195.532C398.976 196.477 399.258 197.422 399.286 198.617C397.683 199.471 398.247 200.461 398.434 201.456C398.832 203.571 398.84 205.621 396.746 207.002C396.746 207.002 396.773 206.955 396.737 206.817C396.53 206.549 396.357 206.419 396.185 206.288Z" fill="#CB0606"/>
<path d="M396.805 207.204C398.84 205.621 398.832 203.571 398.434 201.456C398.247 200.461 397.683 199.471 399.272 198.814C401.04 199.42 401.013 200.943 401.09 202.163C401.355 206.411 403.558 209.428 406.71 212.005C408.92 213.811 411.007 215.765 413.202 217.7C412.085 219.512 410.626 219.298 409.379 218.551C404.513 215.636 399.81 212.495 396.805 207.204Z" fill="#D20A09"/>
</g>
<g filter="url(#filter5_d_28_56)">
<path d="M488.261 289.331C488.551 292.398 488.887 295.461 489.116 298.532C489.315 301.197 489.431 303.87 489.512 306.542C489.558 308.079 489.612 309.643 489.391 311.155C489.125 312.967 487.13 315.225 485.934 315.115C484.104 314.946 483.007 313.592 482.4 312.038C481.774 310.436 481.216 308.714 481.115 307.016C480.765 301.143 480.972 295.289 482.826 289.595C483.278 289.881 483.595 290.415 483.803 290.375C485.301 290.093 486.778 289.694 488.261 289.331Z" fill="#CB0606"/>
<path d="M488.307 289.069C486.778 289.694 485.301 290.093 483.803 290.375C483.595 290.415 483.278 289.881 482.958 289.4C482.904 288.924 482.905 288.662 483.126 288.057C483.389 287.126 483.432 286.537 483.474 285.948C483.835 280.816 484.107 275.677 484.575 270.555C485.314 262.478 484.586 254.53 482.809 246.401C483.054 244.054 482.675 241.721 485.217 240.377C485.857 242.543 486.552 244.733 486.649 246.949C487.188 259.259 487.576 271.576 488.032 283.89C488.093 285.53 488.244 287.167 488.307 289.069Z" fill="#C90606"/>
<path d="M423.688 225.632C422.168 226.477 420.697 227.438 419.106 228.116C418.374 228.427 417.098 228.549 416.598 228.128C414.585 226.434 412.304 225.397 409.841 224.64C409.682 224.591 409.588 224.334 409.289 223.95C411.649 220.321 415.281 219.543 419.532 219.822C420.017 220.338 420.249 220.573 420.481 220.807C420.684 220.425 420.887 220.043 421.089 219.661C421.335 219.614 421.58 219.568 422.046 219.826C422.595 220.426 422.922 220.72 423.25 221.015C423.519 220.569 423.789 220.124 424.058 219.678C426.483 219.828 428.909 219.978 431.26 220.309C429.369 220.49 427.553 220.49 425.521 220.49C425.708 222.23 425.851 223.559 425.994 224.887C425.507 225.104 425.019 225.321 424.303 225.338C423.823 224.941 423.572 224.745 423.322 224.549C423.444 224.91 423.566 225.271 423.688 225.632Z" fill="#C90606"/>
<path d="M425.987 224.879C425.851 223.559 425.708 222.23 425.521 220.49C427.553 220.49 429.369 220.49 431.48 220.437C436.066 221.346 440.593 221.318 444.618 223.449C445.001 223.652 445.604 223.439 446.339 223.65C446.927 223.855 447.281 223.829 447.635 223.803C448.137 223.835 448.64 223.867 449.46 224.04C449.778 224.181 449.969 224.222 449.969 224.222L450.161 224.191C450.161 224.191 450.163 224.202 450.17 224.195C450.627 224.539 451.077 224.89 451.603 225.3C451.039 226.562 450.463 227.85 449.665 229.207C449.443 229.275 449.461 229.239 449.373 229.079C448.907 228.826 448.529 228.732 448.152 228.639C448.152 228.639 447.88 228.615 447.658 228.412C447.217 228.163 446.999 228.118 446.781 228.073C445.814 227.747 444.803 227.513 443.887 227.08C439.023 224.783 433.903 224.004 428.073 224.312C427.043 224.47 426.514 224.678 425.986 224.887C425.986 224.887 425.979 224.87 425.987 224.879Z" fill="#C90606"/>
<path d="M395.66 223.295C399.027 220.92 398.958 219.664 395.379 217.451C393.612 216.359 391.815 215.74 389.699 215.451C387.037 215.088 384.479 213.956 381.649 213.129C382.086 211.802 383.313 212.059 384.411 212.075C390.207 212.159 395.104 214.304 399.384 218.236C403.848 222.337 408.063 226.715 413.479 229.74C421.589 234.269 430.049 237.537 439.325 238.612C441.068 238.814 443.008 238.692 444.476 239.973C444.236 241.529 443.041 241.388 442.09 241.635C432.552 244.112 423.915 241.506 415.734 236.785C413.071 235.248 410.584 233.361 408.183 231.428C404.32 228.319 400.227 225.614 395.66 223.295Z" fill="#CD0808"/>
<path d="M446.993 208.296C448.037 208.148 448.83 208.265 448.867 209.387C448.893 210.192 448.872 210.999 448.872 211.594C449.798 212.931 451.97 212.494 451.981 214.689C449.253 215.379 446.527 215.899 443.782 216.276C439.671 216.841 435.875 215.233 431.976 214.386C427.291 213.369 422.662 212.941 417.991 214.576C416.532 215.087 414.968 215.862 412.903 215.192C413.345 214.39 413.523 213.669 413.983 213.294C417.869 210.119 422.125 208.192 427.36 209.088C432.323 209.938 437.328 210.551 442.319 211.232C443.127 211.343 443.959 211.268 445.149 211.208C445.63 211.06 445.72 210.962 445.787 210.843C446.132 210.039 446.476 209.235 446.993 208.296Z" fill="#C90606"/>
<path d="M404.281 242.249C402.018 241.117 399.857 239.656 397.473 238.918C391.593 237.099 385.618 235.585 379.665 234.005C377.571 233.449 376.565 232.239 376.604 230.041C376.71 224.093 378.057 218.488 381.462 213.234C384.479 213.956 387.037 215.088 389.699 215.451C391.815 215.74 393.612 216.359 395.379 217.451C398.958 219.664 399.026 220.92 395.571 223.1C394.321 222.689 393.056 222.318 391.825 221.856C390.598 221.396 389.406 220.845 387.849 220.186C387.059 222.123 386.283 223.772 385.718 225.49C385.265 226.866 385.822 227.748 387.3 228.288C392.624 230.232 397.886 232.344 403.2 234.316C408.704 236.359 413.575 239.401 417.625 243.625C421.497 247.664 425.655 251.289 430.351 254.364C434.288 256.942 438.587 258.625 442.965 260.124C446.989 261.501 451.483 258.257 451.546 253.924C451.573 252.131 451.143 250.204 450.418 248.559C449.437 246.333 448.723 244.147 448.926 241.71C449.078 239.881 448.54 238.563 446.664 237.81C445.052 237.162 443.564 236.197 442.033 235.352C440.868 234.709 439.584 234.159 439.454 232.482C440.846 230.534 442.885 230.629 444.73 231.309C447.618 232.373 450.39 233.762 453.169 235.1C455.304 236.128 457.353 237.335 459.479 238.381C463.118 240.171 466.944 240.64 470.905 239.737C471.802 239.533 472.771 239.312 473.512 238.811C476.936 236.494 477.543 236.134 476.435 232.058C476.006 230.483 475.86 228.82 475.694 227.186C475.378 224.081 476.557 221.612 478.856 219.507C480.596 217.912 482.197 216.14 483.701 214.316C487.037 210.269 486.81 205.894 484.217 201.674C481.715 197.602 477.993 194.857 473.448 193.322C471.239 192.576 468.988 191.957 466.86 191.312C465.18 195.031 463.586 198.353 462.176 201.751C461.235 204.019 461.747 205.295 464.062 206.554C467.529 208.439 469.541 211.457 471.025 214.946C472.301 217.949 472.161 220.758 470.755 223.832C467.809 230.271 461.485 232.09 455.592 231.426C453.596 231.201 451.682 230.239 449.809 229.376C450.463 227.85 451.039 226.562 451.603 225.3C451.077 224.89 450.627 224.539 450.177 224.188C451.506 224.254 452.835 224.3 454.162 224.39C456.35 224.537 458.469 224.376 460.417 223.224C463.122 221.626 463.327 219.959 460.629 218.485C458.045 217.073 455.166 216.202 452.196 214.774C451.97 212.494 449.798 212.931 448.872 211.594C448.872 210.999 448.893 210.192 448.867 209.387C448.83 208.265 448.037 208.148 447.165 208.162C447.208 204.692 446.322 203.351 442.971 202.896C440.336 202.539 437.63 202.674 434.955 202.649C433.199 202.633 433.199 202.68 431.374 201.392C432.025 200.851 432.534 200.123 433.198 199.93C436.048 199.104 438.935 198.396 441.827 197.726C443.223 197.402 444.68 197.333 446.069 196.988C446.52 196.876 446.843 196.252 447.359 195.724C445.862 194.504 444.398 195.081 443.034 195.06C441.105 195.031 440.345 194.391 440.892 192.705C441.637 190.404 442.143 187.928 444.09 185.834C446.996 187.152 449.888 188.453 452.768 189.779C453.327 190.036 453.82 190.441 454.381 190.694C457.168 191.954 458.012 191.381 458.366 188.369C458.943 183.455 457.057 179.512 453.826 176.032C449.852 171.751 445.256 168.314 439.768 165.477C438.779 164.163 437.576 163.286 437.303 162.18C436.904 160.557 436.058 159.52 434.803 158.638C435.922 156.474 437.041 154.311 438.265 151.944C438.831 152.323 439.219 152.465 439.432 152.742C443.77 158.399 448.707 163.482 453.998 168.25C457.382 171.299 460.216 174.833 462.415 178.844C462.98 179.874 463.647 180.595 464.89 180.94C466.843 181.481 468.823 182.117 470.598 183.073C475.968 185.966 480.89 189.478 485.077 193.988C488.206 197.357 490.107 201.306 490.68 205.783C490.933 207.758 490.576 209.902 490.071 211.859C489.378 214.537 488.304 217.118 487.347 219.723C486.744 221.361 486.007 222.951 485.413 224.592C483.57 229.678 483.068 234.774 485.224 240.134C482.675 241.721 483.054 244.054 482.815 246.152C482.546 245.396 482.278 244.639 481.931 243.663C479.438 243.944 476.901 243.789 474.554 245.867C473.857 246.315 473.407 246.442 472.958 246.57C471.95 246.393 470.942 246.216 469.429 245.992C467.996 245.946 467.067 245.947 466.138 245.948C464.822 245.827 463.507 245.706 462.426 245.606C461.19 247.378 460.065 249.042 458.884 250.667C458.147 251.681 458.107 252.625 458.545 253.832C460.4 258.941 458.312 263.419 453.297 265.562C447.458 268.059 441.807 266.805 436.642 264.046C430.758 260.903 425.278 257.006 419.608 253.458C418.073 252.498 416.489 251.614 414.755 250.901C414.583 251.106 414.587 251.014 414.845 250.883C415.127 250.589 415.149 250.428 415.156 250.1C412.43 247.739 409.757 245.497 406.988 243.382C406.236 242.808 405.191 242.616 404.281 242.249Z" fill="#C90606"/>
<path d="M434.598 158.72C436.058 159.52 436.904 160.557 437.303 162.18C437.576 163.286 438.779 164.163 439.585 165.331C437.8 166.117 435.992 166.704 434.193 167.313C430.399 168.597 426.622 169.181 422.996 166.903C424.585 167.028 426.056 167.49 427.558 167.638C428.346 167.716 429.686 167.458 429.894 166.974C430.219 166.213 430.082 164.943 429.615 164.238C429.112 163.478 428.047 163.02 427.145 162.615C426.228 162.203 425.146 162.146 424.25 161.703C422.733 160.954 421.576 161.348 420.435 162.372C421.079 163.882 421.668 165.261 422.256 166.641C420.651 165.568 418.859 164.692 417.473 163.386C412.58 158.779 406.839 157.362 400.386 158.571C398.805 158.868 397.253 159.563 395.81 160.313C392.25 162.165 388.771 164.173 385.235 166.073C384.493 166.471 383.645 166.672 382.588 167.058C384.9 158.027 402.429 148.377 416.014 154.243C416.541 154.625 416.784 154.7 417.027 154.776C417.027 154.776 417.16 154.696 417.334 154.911C417.757 155.216 418.005 155.306 418.254 155.397C418.254 155.397 418.415 155.348 418.579 155.56C418.97 155.854 419.197 155.936 419.424 156.019C419.424 156.019 419.631 156.012 419.784 156.211C420.075 156.57 420.245 156.676 420.45 156.728C423.191 158.058 425.893 159.48 428.687 160.691C431.044 161.712 432.842 160.502 434.598 158.72Z" fill="#D00608"/>
<path d="M422.317 166.706C421.668 165.261 421.079 163.882 420.435 162.372C421.576 161.348 422.733 160.954 424.25 161.703C425.146 162.146 426.228 162.203 427.145 162.615C428.047 163.02 429.112 163.478 429.615 164.238C430.082 164.943 430.219 166.213 429.894 166.974C429.686 167.458 428.346 167.716 427.558 167.638C426.056 167.49 424.585 167.028 422.828 166.735C422.555 166.773 422.377 166.772 422.317 166.706Z" fill="#C90606"/>
<path d="M472.988 246.84C473.407 246.442 473.857 246.315 474.456 246.096C475.92 250.638 475.811 255.36 475.421 260.087C475.335 261.127 474.912 262.14 474.278 263.117C473.285 260.448 473.85 257.746 473.659 255.098C473.466 252.434 473.233 249.773 472.988 246.84Z" fill="#D20A09"/>
</g>
<g filter="url(#filter6_d_28_56)">
<path d="M416.236 191.998C415.125 184.836 419.498 178.307 427.074 175.214C427.775 174.928 428.688 174.936 429.452 175.079C430.449 175.264 431.488 175.568 432.348 176.087C435.566 178.028 438.718 180.078 442.259 182.317C440.447 184.235 438.592 186.199 436.446 188.471C434.895 187 433.636 185.851 432.429 184.649C431.136 183.36 429.744 182.346 427.794 182.837C427.357 182.947 426.991 183.341 426.428 183.713C427.968 185.977 430.16 187.098 432.289 188.213C434.45 189.344 436.734 190.238 439.136 191.313C438.484 193.209 437.177 194.492 435.867 195.746C434.936 196.639 433.98 196.446 433.211 195.482C432.699 194.84 432.328 194.086 431.812 193.449C431.236 192.738 430.665 191.935 429.905 191.493C429.427 191.214 428.503 191.345 427.983 191.645C427.722 191.795 427.73 192.817 427.946 193.297C428.273 194.026 428.821 194.692 429.395 195.264C430.041 195.907 430.821 196.417 431.533 196.977C430.354 199.236 428.414 199.731 426.674 200.816C422.462 197.317 423.282 192.279 422.56 187.647C420.578 188.244 420.621 189.836 419.869 191.177C418.68 190.274 417.807 189.306 416.958 188.364C416.697 189.674 416.467 190.836 416.236 191.998Z" fill="#C90606"/>
<path d="M416.171 192.22C416.466 190.836 416.697 189.674 416.958 188.364C417.807 189.306 418.68 190.274 419.74 191.355C420.129 192.429 420.331 193.389 420.537 194.749C420.682 195.347 420.821 195.545 420.96 195.743C421.382 196.568 421.803 197.394 422.241 198.561C422.029 199.105 421.8 199.307 421.571 199.509C420.898 199.08 420.224 198.651 419.325 197.975C418.553 197.067 418.008 196.405 417.463 195.743C417.011 194.642 416.559 193.542 416.171 192.22Z" fill="#C90606"/>
</g>
<defs>
<filter id="filter0_d_28_56" x="74.7529" y="151.398" width="397.957" height="375.525" filterUnits="userSpaceOnUse" color-interpolation-filters="sRGB">
<feFlood flood-opacity="0" result="BackgroundImageFix"/>
<feColorMatrix in="SourceAlpha" type="matrix" values="0 0 0 0 0 0 0 0 0 0 0 0 0 0 0 0 0 0 127 0" result="hardAlpha"/>
<feOffset dy="4"/>
<feGaussianBlur stdDeviation="2"/>
<feComposite in2="hardAlpha" operator="out"/>
<feColorMatrix type="matrix" values="0 0 0 0 0 0 0 0 0 0 0 0 0 0 0 0 0 0 0.5 0"/>
<feBlend mode="normal" in2="BackgroundImageFix" result="effect1_dropShadow_28_56"/>
<feBlend mode="normal" in="SourceGraphic" in2="effect1_dropShadow_28_56" result="shape"/>
</filter>
<filter id="filter1_d_28_56" x="423.458" y="323.379" width="48.7828" height="48.3533" filterUnits="userSpaceOnUse" color-interpolation-filters="sRGB">
<feFlood flood-opacity="0" result="BackgroundImageFix"/>
<feColorMatrix in="SourceAlpha" type="matrix" values="0 0 0 0 0 0 0 0 0 0 0 0 0 0 0 0 0 0 127 0" result="hardAlpha"/>
<feOffset dy="4"/>
<feGaussianBlur stdDeviation="2"/>
<feComposite in2="hardAlpha" operator="out"/>
<feColorMatrix type="matrix" values="0 0 0 0 0 0 0 0 0 0 0 0 0 0 0 0 0 0 0.5 0"/>
<feBlend mode="normal" in2="BackgroundImageFix" result="effect1_dropShadow_28_56"/>
<feBlend mode="normal" in="SourceGraphic" in2="effect1_dropShadow_28_56" result="shape"/>
</filter>
<filter id="filter2_d_28_56" x="422.373" y="413.187" width="50.3183" height="51.7908" filterUnits="userSpaceOnUse" color-interpolation-filters="sRGB">
<feFlood flood-opacity="0" result="BackgroundImageFix"/>
<feColorMatrix in="SourceAlpha" type="matrix" values="0 0 0 0 0 0 0 0 0 0 0 0 0 0 0 0 0 0 127 0" result="hardAlpha"/>
<feOffset dy="4"/>
<feGaussianBlur stdDeviation="2"/>
<feComposite in2="hardAlpha" operator="out"/>
<feColorMatrix type="matrix" values="0 0 0 0 0 0 0 0 0 0 0 0 0 0 0 0 0 0 0.5 0"/>
<feBlend mode="normal" in2="BackgroundImageFix" result="effect1_dropShadow_28_56"/>
<feBlend mode="normal" in="SourceGraphic" in2="effect1_dropShadow_28_56" result="shape"/>
</filter>
<filter id="filter3_d_28_56" x="421.913" y="367.774" width="49.7082" height="50.7466" filterUnits="userSpaceOnUse" color-interpolation-filters="sRGB">
<feFlood flood-opacity="0" result="BackgroundImageFix"/>
<feColorMatrix in="SourceAlpha" type="matrix" values="0 0 0 0 0 0 0 0 0 0 0 0 0 0 0 0 0 0 127 0" result="hardAlpha"/>
<feOffset dy="4"/>
<feGaussianBlur stdDeviation="2"/>
<feComposite in2="hardAlpha" operator="out"/>
<feColorMatrix type="matrix" values="0 0 0 0 0 0 0 0 0 0 0 0 0 0 0 0 0 0 0.5 0"/>
<feBlend mode="normal" in2="BackgroundImageFix" result="effect1_dropShadow_28_56"/>
<feBlend mode="normal" in="SourceGraphic" in2="effect1_dropShadow_28_56" result="shape"/>
</filter>
<filter id="filter4_d_28_56" x="368.589" y="165.866" width="55.6648" height="61.2347" filterUnits="userSpaceOnUse" color-interpolation-filters="sRGB">
<feFlood flood-opacity="0" result="BackgroundImageFix"/>
<feColorMatrix in="SourceAlpha" type="matrix" values="0 0 0 0 0 0 0 0 0 0 0 0 0 0 0 0 0 0 127 0" result="hardAlpha"/>
<feOffset dy="4"/>
<feGaussianBlur stdDeviation="2"/>
<feComposite in2="hardAlpha" operator="out"/>
<feColorMatrix type="matrix" values="0 0 0 0 0 0 0 0 0 0 0 0 0 0 0 0 0 0 0.5 0"/>
<feBlend mode="normal" in2="BackgroundImageFix" result="effect1_dropShadow_28_56"/>
<feBlend mode="normal" in="SourceGraphic" in2="effect1_dropShadow_28_56" result="shape"/>
</filter>
<filter id="filter5_d_28_56" x="372.603" y="151.944" width="122.161" height="171.174" filterUnits="userSpaceOnUse" color-interpolation-filters="sRGB">
<feFlood flood-opacity="0" result="BackgroundImageFix"/>
<feColorMatrix in="SourceAlpha" type="matrix" values="0 0 0 0 0 0 0 0 0 0 0 0 0 0 0 0 0 0 127 0" result="hardAlpha"/>
<feOffset dy="4"/>
<feGaussianBlur stdDeviation="2"/>
<feComposite in2="hardAlpha" operator="out"/>
<feColorMatrix type="matrix" values="0 0 0 0 0 0 0 0 0 0 0 0 0 0 0 0 0 0 0.5 0"/>
<feBlend mode="normal" in2="BackgroundImageFix" result="effect1_dropShadow_28_56"/>
<feBlend mode="normal" in="SourceGraphic" in2="effect1_dropShadow_28_56" result="shape"/>
</filter>
<filter id="filter6_d_28_56" x="412.064" y="174.982" width="34.1945" height="33.8339" filterUnits="userSpaceOnUse" color-interpolation-filters="sRGB">
<feFlood flood-opacity="0" result="BackgroundImageFix"/>
<feColorMatrix in="SourceAlpha" type="matrix" values="0 0 0 0 0 0 0 0 0 0 0 0 0 0 0 0 0 0 127 0" result="hardAlpha"/>
<feOffset dy="4"/>
<feGaussianBlur stdDeviation="2"/>
<feComposite in2="hardAlpha" operator="out"/>
<feColorMatrix type="matrix" values="0 0 0 0 0 0 0 0 0 0 0 0 0 0 0 0 0 0 0.5 0"/>
<feBlend mode="normal" in2="BackgroundImageFix" result="effect1_dropShadow_28_56"/>
<feBlend mode="normal" in="SourceGraphic" in2="effect1_dropShadow_28_56" result="shape"/>
</filter>
</defs>
</svg>
