<svg width="106" height="117" viewBox="-100 -100 226 237" fill="none" xmlns="http://www.w3.org/2000/svg">
    <path
        d="M53.6817 0L43.4052 26.2381L62.3124 51.9213L86.4744 50.0554L85.7033 30.4142L66.2513 27.3254L65.8509 37.615L73.0919 39.4899L72.9013 35.9968L77.5434 35.7461L78.0782 45.565L61.0615 41.1583L61.8087 21.9318L78.8852 24.6435L78.2742 3.32755L53.6817 0ZM44.3089 11.1908L25.9758 21.0796L32.4325 55.1163L67.5819 75.1094L106 55.2816L103.201 20.0527L83.3967 19.808L83.5564 25.3849L90.1991 26.4395L91.2944 54.3268L60.0926 56.7365L38.1465 26.9248L44.3089 11.1908ZM21.1489 33.1662C20.4047 33.162 19.6539 33.1672 18.8968 33.1811C16.5446 33.2242 14.0649 33.3924 11.5737 33.576C13.9186 36.8758 16.2237 40.0579 19.0751 42.479C21.0387 44.1462 23.2628 45.5281 26.0587 46.4566L23.5463 33.2145C22.7543 33.1873 21.9558 33.1707 21.1489 33.1662ZM27.5094 54.1021C23.9578 55.4077 20.7534 57.3846 17.6995 59.9362C13.2532 63.651 9.17426 68.6614 5.10676 74.4212C19.2604 75.0653 30.0212 72.8332 41.7511 65.748L28.2633 58.0768L27.5094 54.1021ZM94.8833 66.2331L82.2868 72.7346C89.2203 77.8949 95.9342 79.4744 104.714 79.8091C102.535 74.554 99.0886 70.0274 94.8833 66.2331ZM47.658 67.4458C44.0348 69.8612 40.4842 71.8554 36.9232 73.4761C37.0152 76.1622 37.6229 78.3572 38.6564 80.0336C31.3209 89.3706 23.3053 97.8745 14.5828 105.511C10.2088 105.21 8.46931 100.77 10.1439 96.2598C4.48291 100.737 2.57527 106.706 5.16895 113.199C3.46951 114.494 1.74869 115.764 0 117H11.2792C17.6595 112.018 23.6953 106.64 29.3988 100.874C36.7331 103.151 42.8436 100.5 46.7178 93.945C42.9928 95.9397 38.9527 95.339 37.4052 92.2887C39.8064 89.5487 42.1406 86.7305 44.4089 83.8348C46.2123 84.1345 48.2859 83.976 50.5579 83.3319C48.3533 78.8791 47.2426 73.6232 47.658 67.4458ZM52.1686 71.6733C52.4683 77.9194 54.7712 82.576 58.2997 86.567C62.7557 91.6074 69.4261 95.471 76.6136 99.1553C78.5513 90.8377 78.9904 83.6314 76.1037 75.9254L67.4742 80.3791L52.1686 71.6733Z"
        fill="black" />
    <path
        d="M58.5901 108.817C58.564 108.745 58.5379 108.686 58.5078 108.628L58.5118 108.637C58.3962 108.367 57.4673 106.571 57.3122 106.327L52.9988 98L48.5755 106.531C48.4251 106.776 47.6006 108.368 47.4866 108.637L47.4415 108.737C47.1622 109.406 47 110.182 47 110.998C47 114.312 49.6857 117 52.9996 117C56.3136 117 58.9992 114.313 58.9992 110.998C58.9992 110.996 58.9992 110.994 58.9992 110.993C58.9992 110.969 59 110.941 59 110.913C59 110.157 58.8497 109.436 58.5767 108.779L58.5901 108.816V108.817ZM53.002 115.432C50.5608 115.432 48.5826 113.452 48.5826 111.009C48.5826 110.239 48.7796 109.516 49.1254 108.885L49.1136 108.908C49.059 109.189 49.0273 109.512 49.0265 109.843V109.844C49.0281 112.771 51.3996 115.144 54.325 115.145C54.4144 115.145 54.5102 115.145 54.5988 115.14C54.1288 115.325 53.5836 115.432 53.0138 115.432C53.0075 115.432 53.002 115.432 52.9956 115.432H53.002Z"
        fill="#9F1A1A" />
</svg>